<svg width="1125" height="1257" viewBox="0 0 1125 1257" fill="none" xmlns="http://www.w3.org/2000/svg">
<g clip-path="url(#clip0_19_5)">
<path d="M699.619 1113.02C679.559 1157.5 666.299 1205.77 661.219 1256.39L1085.73 1166.15C1105.79 1121.68 1119.04 1073.4 1124.13 1022.78L699.619 1113.02Z" fill="#6B7280"/>
<path d="M1085.73 895.8C1105.79 851.33 1119.05 803.05 1124.13 752.43L793.45 822.76V687.56L1085.72 625.45C1105.78 580.98 1119.04 532.7 1124.12 482.08L793.44 552.35V66.13C742.77 94.58 697.77 132.45 661.19 177.12V580.47L528.94 608.58V0C478.27 28.44 433.27 66.32 396.69 110.99V636.68L100.78 699.56C80.7202 744.03 67.4502 792.31 62.3602 842.93L396.69 771.88V942.14L38.3902 1018.28C18.3302 1062.75 5.07023 1111.03 -0.00976562 1161.65L375.03 1081.95C405.56 1075.6 431.8 1057.55 448.86 1032.71L517.64 930.74V930.72C524.78 920.17 528.94 907.45 528.94 893.75V743.77L661.19 715.66V986.06L1085.72 895.78L1085.73 895.8Z" fill="#6B7280"/>
</g>
<defs>
<clipPath id="clip0_19_5">
<rect width="1124.14" height="1256.39" fill="white"/>
</clipPath>
</defs>
</svg>
